<svg width="722" height="458" viewBox="0 0 722 458" fill="none" xmlns="http://www.w3.org/2000/svg">
<g filter="url(#filter0_i_609_104)">
<rect width="722" height="458" rx="25" fill="url(#paint0_linear_609_104)"/>
</g>
<path d="M221.432 363L227.408 345.48H232.976L239.12 363H235.616L230.408 347.808L231.632 348.336H228.632L229.88 347.808L224.84 363H221.432ZM225.608 358.344L226.688 355.464H233.792L234.848 358.344H225.608ZM244.122 363V345.48H249.714L257.083 360.168H257.875L257.394 360.6V345.48H260.61V363H254.995L247.627 348.312H246.81L247.291 347.88V363H244.122ZM270.263 363.096V359.928H273.887C274.799 359.928 275.607 359.792 276.311 359.52C277.031 359.232 277.639 358.832 278.135 358.32C278.631 357.808 279.007 357.208 279.263 356.52C279.535 355.816 279.671 355.04 279.671 354.192C279.671 353.312 279.535 352.528 279.263 351.84C279.007 351.136 278.631 350.536 278.135 350.04C277.639 349.544 277.031 349.168 276.311 348.912C275.607 348.656 274.799 348.528 273.887 348.528H270.263V345.36H273.671C275.255 345.36 276.639 345.592 277.823 346.056C279.007 346.52 279.991 347.16 280.775 347.976C281.559 348.776 282.143 349.696 282.527 350.736C282.927 351.76 283.127 352.824 283.127 353.928V354.456C283.127 355.512 282.927 356.552 282.527 357.576C282.143 358.6 281.559 359.528 280.775 360.36C279.991 361.192 279.007 361.856 277.823 362.352C276.639 362.848 275.255 363.096 273.671 363.096H270.263ZM267.335 363.096V345.36H270.743V363.096H267.335ZM288.579 363V345.36H291.987V363H288.579ZM299.283 363L293.907 355.368H297.723L303.267 363H299.283ZM290.979 357.144V354.384H295.443C296.067 354.384 296.603 354.256 297.051 354C297.515 353.744 297.875 353.384 298.131 352.92C298.387 352.456 298.515 351.928 298.515 351.336C298.515 350.728 298.387 350.192 298.131 349.728C297.875 349.264 297.515 348.904 297.051 348.648C296.603 348.392 296.067 348.264 295.443 348.264H290.979V345.36H295.083C296.491 345.36 297.707 345.568 298.731 345.984C299.771 346.4 300.571 347.032 301.131 347.88C301.691 348.728 301.971 349.792 301.971 351.072V351.456C301.971 352.752 301.683 353.816 301.107 354.648C300.547 355.48 299.755 356.104 298.731 356.52C297.707 356.936 296.491 357.144 295.083 357.144H290.979ZM308.252 363V345.48H311.588V363H308.252ZM311.108 363V360.12H319.052V363H311.108ZM311.108 355.536V352.656H318.428V355.536H311.108ZM311.108 348.36V345.48H318.86V348.36H311.108ZM337.569 363.456C336.305 363.456 335.193 363.208 334.233 362.712C333.273 362.216 332.529 361.488 332.001 360.528C331.473 359.568 331.209 358.392 331.209 357V356.232H334.593V357.288C334.593 358.216 334.865 358.952 335.409 359.496C335.953 360.024 336.665 360.288 337.545 360.288C338.441 360.288 339.153 360.024 339.681 359.496C340.225 358.952 340.497 358.216 340.497 357.288V348H343.905V357C343.905 358.392 343.641 359.568 343.113 360.528C342.585 361.488 341.849 362.216 340.905 362.712C339.961 363.208 338.849 363.456 337.569 363.456ZM333.345 348.48V345.48H343.905V348.48H333.345ZM357.551 363.456C355.919 363.456 354.543 363.144 353.423 362.52C352.303 361.896 351.447 361.024 350.855 359.904C350.279 358.768 349.991 357.44 349.991 355.92V345.48H353.399V356.112C353.399 356.944 353.559 357.68 353.879 358.32C354.199 358.944 354.663 359.432 355.271 359.784C355.895 360.12 356.655 360.288 357.551 360.288C358.431 360.288 359.175 360.12 359.783 359.784C360.407 359.432 360.871 358.944 361.175 358.32C361.495 357.696 361.655 356.96 361.655 356.112V345.48H365.063V355.92C365.063 357.44 364.775 358.768 364.199 359.904C363.639 361.024 362.799 361.896 361.679 362.52C360.559 363.144 359.183 363.456 357.551 363.456ZM371.454 363V345.48H377.046L384.414 360.168H385.206L384.726 360.6V345.48H387.942V363H382.326L374.958 348.312H374.142L374.622 347.88V363H371.454ZM394.714 363V345.48H398.122V363H394.714ZM413.126 363.456C411.542 363.456 410.166 363.176 408.998 362.616C407.846 362.056 406.886 361.328 406.118 360.432C405.366 359.52 404.798 358.544 404.414 357.504C404.046 356.448 403.862 355.432 403.862 354.456V353.928C403.862 352.856 404.054 351.792 404.438 350.736C404.822 349.664 405.398 348.696 406.166 347.832C406.95 346.968 407.918 346.28 409.07 345.768C410.222 345.24 411.574 344.976 413.126 344.976C414.662 344.976 416.006 345.24 417.158 345.768C418.31 346.28 419.27 346.968 420.038 347.832C420.822 348.696 421.406 349.664 421.79 350.736C422.174 351.792 422.366 352.856 422.366 353.928V354.456C422.366 355.432 422.174 356.448 421.79 357.504C421.422 358.544 420.854 359.52 420.086 360.432C419.334 361.328 418.374 362.056 417.206 362.616C416.054 363.176 414.694 363.456 413.126 363.456ZM413.126 360.288C414.022 360.288 414.822 360.128 415.526 359.808C416.246 359.488 416.854 359.048 417.35 358.488C417.862 357.912 418.246 357.264 418.502 356.544C418.774 355.808 418.91 355.032 418.91 354.216C418.91 353.336 418.774 352.528 418.502 351.792C418.246 351.056 417.862 350.416 417.35 349.872C416.854 349.328 416.246 348.904 415.526 348.6C414.806 348.296 414.006 348.144 413.126 348.144C412.23 348.144 411.422 348.296 410.702 348.6C409.982 348.904 409.366 349.328 408.854 349.872C408.358 350.416 407.974 351.056 407.702 351.792C407.446 352.528 407.318 353.336 407.318 354.216C407.318 355.032 407.446 355.808 407.702 356.544C407.974 357.264 408.358 357.912 408.854 358.488C409.366 359.048 409.982 359.488 410.702 359.808C411.422 360.128 412.23 360.288 413.126 360.288ZM428.06 363V345.36H431.468V363H428.06ZM438.764 363L433.388 355.368H437.204L442.748 363H438.764ZM430.46 357.144V354.384H434.924C435.548 354.384 436.084 354.256 436.532 354C436.996 353.744 437.356 353.384 437.612 352.92C437.868 352.456 437.996 351.928 437.996 351.336C437.996 350.728 437.868 350.192 437.612 349.728C437.356 349.264 436.996 348.904 436.532 348.648C436.084 348.392 435.548 348.264 434.924 348.264H430.46V345.36H434.564C435.972 345.36 437.188 345.568 438.212 345.984C439.252 346.4 440.052 347.032 440.612 347.88C441.172 348.728 441.452 349.792 441.452 351.072V351.456C441.452 352.752 441.164 353.816 440.588 354.648C440.028 355.48 439.236 356.104 438.212 356.52C437.188 356.936 435.972 357.144 434.564 357.144H430.46Z" fill="#FEFBFF"/>
<path fill-rule="evenodd" clip-rule="evenodd" d="M94.6654 319.851C94.6654 319.852 94.6657 319.826 94.6766 319.771C94.6871 319.717 94.7054 319.646 94.7347 319.559C94.7935 319.385 94.8901 319.165 95.0334 318.917C95.32 318.421 95.7759 317.841 96.4342 317.301C97.733 316.235 99.8636 315.292 103.14 315.533C116.1 316.484 123.415 325.41 123.415 332.161V372.168C123.415 372.805 123.268 373.099 123.132 373.241C123.004 373.375 122.718 373.546 122.028 373.546H114.306C113.616 373.546 113.33 373.375 113.202 373.241C113.066 373.1 112.919 372.805 112.919 372.168V335.238C112.919 332.828 111.735 330.421 109.988 328.634C108.238 326.842 105.817 325.566 103.213 325.566H94.6654V319.851ZM103.213 327.566H94.6654V372.168C94.6654 373.162 94.4817 374.108 93.7928 374.763C93.1156 375.407 92.1813 375.546 91.2784 375.546H83.4154C82.6084 375.546 81.7233 375.389 81.0382 374.792C80.3257 374.171 80.0284 373.251 80.0284 372.168V334.819C80.0284 332.956 81.0921 330.668 82.6635 328.878C84.2482 327.074 86.5354 325.566 89.1714 325.566H92.6654V319.851C92.6654 319.284 92.9171 318.582 93.3016 317.917C93.7056 317.217 94.317 316.45 95.1659 315.754C96.8815 314.347 99.525 313.262 103.287 313.538C117.005 314.545 125.415 324.098 125.415 332.161V372.168C125.415 373.069 125.212 373.963 124.575 374.626C123.931 375.297 123.024 375.546 122.028 375.546H114.306C113.311 375.546 112.403 375.297 111.759 374.626C111.123 373.963 110.919 373.069 110.919 372.168V335.238C110.919 333.463 110.026 331.534 108.558 330.031C107.093 328.532 105.161 327.566 103.213 327.566ZM89.1714 327.566H92.6654V372.168C92.6654 372.991 92.498 373.235 92.4146 373.314C92.3196 373.404 92.0604 373.546 91.2784 373.546H83.4154C82.8182 373.546 82.5098 373.422 82.3524 373.285C82.2226 373.171 82.0284 372.902 82.0284 372.168V334.819C82.0284 333.604 82.7896 331.766 84.1664 330.198C85.5299 328.645 87.3142 327.566 89.1714 327.566ZM164.111 381.128C164.111 381.13 164.11 381.156 164.1 381.209C164.089 381.262 164.071 381.333 164.042 381.42C163.983 381.595 163.886 381.814 163.743 382.063C163.457 382.559 163.001 383.139 162.342 383.679C161.043 384.744 158.913 385.687 155.636 385.447C142.676 384.495 135.361 375.569 135.361 368.819V328.812C135.361 328.175 135.508 327.88 135.644 327.739C135.772 327.605 136.058 327.434 136.748 327.434H144.471C145.16 327.434 145.446 327.605 145.575 327.739C145.71 327.88 145.858 328.175 145.858 328.812V365.741C145.858 368.151 147.042 370.559 148.788 372.346C150.539 374.137 152.96 375.414 155.563 375.414H164.111V381.128V381.128ZM155.563 373.414H164.111V328.812C164.111 327.817 164.295 326.872 164.984 326.216C165.661 325.572 166.595 325.434 167.498 325.434H175.361C176.168 325.434 177.053 325.59 177.738 326.187C178.451 326.808 178.748 327.728 178.748 328.812V366.161C178.748 368.023 177.684 370.312 176.113 372.101C174.528 373.906 172.241 375.414 169.605 375.414H166.111V381.128C166.111 381.695 165.859 382.397 165.475 383.063C165.071 383.762 164.459 384.529 163.611 385.225C161.895 386.632 159.252 387.718 155.49 387.441C141.772 386.434 133.361 376.882 133.361 368.819V328.812C133.361 327.91 133.565 327.016 134.201 326.353C134.845 325.683 135.753 325.434 136.748 325.434H144.471C145.466 325.434 146.373 325.683 147.017 326.353C147.654 327.016 147.858 327.91 147.858 328.812V365.741C147.858 367.516 148.75 369.445 150.219 370.948C151.683 372.447 153.615 373.414 155.563 373.414ZM169.605 373.414H166.111V328.812C166.111 327.988 166.279 327.745 166.362 327.666C166.457 327.575 166.716 327.434 167.498 327.434H175.361C175.958 327.434 176.267 327.558 176.424 327.695C176.554 327.808 176.748 328.077 176.748 328.812V366.161C176.748 367.376 175.987 369.214 174.61 370.782C173.247 372.334 171.462 373.414 169.605 373.414Z" fill="#FEFBFF"/>
<circle cx="581.889" cy="86.4971" r="45.7505" fill="#E71924"/>
<circle cx="637.647" cy="86.4971" r="45.7505" fill="#F99F19"/>
<path fill-rule="evenodd" clip-rule="evenodd" d="M609.768 122.595C620.636 114.23 627.64 101.092 627.64 86.3172C627.64 71.5428 620.636 58.404 609.768 50.0396C598.9 58.404 591.897 71.5428 591.897 86.3172C591.897 101.092 598.9 114.23 609.768 122.595Z" fill="#F26520"/>
<rect x="80.4209" y="156.195" width="97.9347" height="69.3406" rx="6.07624" fill="url(#paint1_linear_609_104)" stroke="#211F21" stroke-width="2.14455"/>
<path d="M80.7783 178.713H110.087" stroke="#211F21" stroke-width="2" stroke-linecap="round"/>
<path d="M80.7783 200.873H109.445" stroke="#211F21" stroke-width="2" stroke-linecap="round"/>
<path d="M149.404 200.873H177.998" stroke="#211F21" stroke-width="2" stroke-linecap="round"/>
<path d="M148.975 179.428H177.998" stroke="#211F21" stroke-width="2" stroke-linecap="round"/>
<circle cx="129.388" cy="166.561" r="2.14455" fill="#211F21"/>
<path d="M231.053 205.824C236.325 192.59 236.926 185.119 231.053 171.645C230.43 170.215 231.053 169.024 231.768 168.786C232.483 168.547 233.589 168.786 234.27 170.215C241.188 184.73 240.767 192.87 234.627 207.387C233.912 208.817 232.575 208.998 231.768 208.46C230.824 207.831 230.608 206.941 231.053 205.824Z" fill="#FEFBFF"/>
<path d="M223.547 172.717C222.832 173.075 222.375 174.43 223.19 175.934C227.999 185.94 227.801 191.662 223.19 202.026C222.686 203.071 222.998 204.226 223.905 204.528C224.977 204.886 225.913 204.125 226.406 203.098C231.701 192.084 231.84 185.756 226.406 174.147C225.905 173.075 224.619 172.181 223.547 172.717Z" fill="#FEFBFF"/>
<path d="M216.399 177.364C215.326 177.721 215.136 178.908 215.684 180.223C218.53 187.063 218.979 190.898 215.684 197.737C215.041 198.929 214.83 200.193 216.041 200.596C217.252 201 218.126 200.363 218.543 199.524C222.766 191.149 221.82 186.454 218.543 178.079C218.263 177.364 217.471 177.006 216.399 177.364Z" fill="#FEFBFF"/>
<path d="M208.893 180.223C207.82 180.938 207.668 182.022 208.535 183.797C210.344 187.564 210.303 189.68 208.535 193.448C207.713 195.11 207.463 197.022 208.893 197.38C210.322 197.737 210.957 197.229 211.752 195.235C213.578 189.987 213.756 187.02 211.752 181.653C211.291 180.261 210.322 179.508 208.893 180.223Z" fill="#FEFBFF"/>
<path d="M145.115 170.849C142.372 161.508 137.251 156.91 129.03 156.91C119.023 156.91 116.194 164.53 110.087 178.355C113.998 187.507 114.039 192.437 110.087 200.873C116.494 219.254 121.24 224.915 129.388 224.821C140.111 224.821 143.163 215.733 149.046 200.873C145.952 192.497 145.622 187.875 148.5 179.5" stroke="#211F21" stroke-width="2" stroke-linecap="round"/>
<defs>
<filter id="filter0_i_609_104" x="0" y="0" width="725" height="461" filterUnits="userSpaceOnUse" color-interpolation-filters="sRGB">
<feFlood flood-opacity="0" result="BackgroundImageFix"/>
<feBlend mode="normal" in="SourceGraphic" in2="BackgroundImageFix" result="shape"/>
<feColorMatrix in="SourceAlpha" type="matrix" values="0 0 0 0 0 0 0 0 0 0 0 0 0 0 0 0 0 0 127 0" result="hardAlpha"/>
<feOffset dx="3" dy="3"/>
<feGaussianBlur stdDeviation="3"/>
<feComposite in2="hardAlpha" operator="arithmetic" k2="-1" k3="1"/>
<feColorMatrix type="matrix" values="0 0 0 0 1 0 0 0 0 1 0 0 0 0 1 0 0 0 0.25 0"/>
<feBlend mode="normal" in2="shape" result="effect1_innerShadow_609_104"/>
</filter>
<linearGradient id="paint0_linear_609_104" x1="610.09" y1="61.83" x2="354.096" y2="526.995" gradientUnits="userSpaceOnUse">
<stop stop-color="#A950C4"/>
<stop offset="1" stop-color="#82269E"/>
</linearGradient>
<linearGradient id="paint1_linear_609_104" x1="171" y1="165" x2="87" y2="221" gradientUnits="userSpaceOnUse">
<stop stop-color="#F4F4F4"/>
<stop offset="1" stop-color="#D6D6D6"/>
</linearGradient>
</defs>
</svg>
